HIERARCHY
ROOT Hips
{
    OFFSET 0.000000 0.000000 0.000000
    CHANNELS 6 Xposition Yposition Zposition Zrotation Yrotation Xrotation
    JOINT Chest
    {
        OFFSET 0.000000 1.634758 -0.000000
        CHANNELS 3 Zrotation Yrotation Xrotation
        JOINT Chest2
        {
            OFFSET 0.000000 2.197341 0.000000
            CHANNELS 3 Zrotation Yrotation Xrotation
            JOINT Neck
            {
                OFFSET 0.000000 0.961544 0.000000
                CHANNELS 3 Zrotation Yrotation Xrotation
                JOINT Head
                {
                    OFFSET 0.000000 0.632542 -0.032565
                    CHANNELS 3 Zrotation Yrotation Xrotation
                    End Site
                    {
                        OFFSET -0.000001 0.439502 2.922845
                    }
                }
            }
            JOINT LeftCollar
            {
                OFFSET 0.167536 0.778237 -0.168280
                CHANNELS 3 Zrotation Yrotation Xrotation
                JOINT LeftShoulder
                {
                    OFFSET 0.831514 -0.002900 0.006458
                    CHANNELS 3 Zrotation Yrotation Xrotation
                    JOINT LeftElbow
                    {
                        OFFSET 2.272872 -0.026639 0.059314
                        CHANNELS 3 Zrotation Yrotation Xrotation
                        JOINT LeftWrist
                        {
                            OFFSET 2.081982 -0.024402 0.054333
                            CHANNELS 3 Zrotation Yrotation Xrotation
                            JOINT LeftHandThumb1
                            {
                                OFFSET 0.218903 -0.128645 0.283837
                                CHANNELS 3 Zrotation Yrotation Xrotation
                                JOINT LeftHandThumb2
                                {
                                    OFFSET 0.137157 -0.025101 0.077902
                                    CHANNELS 3 Zrotation Yrotation Xrotation
                                    JOINT LeftHandThumb3
                                    {
                                        OFFSET 0.165094 -0.079256 0.001271
                                        CHANNELS 3 Zrotation Yrotation Xrotation
                                        End Site
                                        {
                                            OFFSET 0.239583 -0.099512 -0.067333
                                        }
                                    }
                                }
                            }
                            JOINT LeftHandFore1
                            {
                                OFFSET 0.767340 -0.016076 0.196678
                                CHANNELS 3 Zrotation Yrotation Xrotation
                                JOINT LeftHandFore2
                                {
                                    OFFSET 0.186626 -0.109301 0.014809
                                    CHANNELS 3 Zrotation Yrotation Xrotation
                                    JOINT LeftHandFore3
                                    {
                                        OFFSET 0.056038 -0.116053 0.012424
                                        CHANNELS 3 Zrotation Yrotation Xrotation
                                        End Site
                                        {
                                            OFFSET 0.017888 -0.191706 0.017196
                                        }
                                    }
                                }
                            }
                            JOINT LeftHandMiddle1
                            {
                                OFFSET 0.709887 -0.008320 0.018526
                                CHANNELS 3 Zrotation Yrotation Xrotation
                                JOINT LeftHandMiddle2
                                {
                                    OFFSET 0.212861 -0.121147 0.008800
                                    CHANNELS 3 Zrotation Yrotation Xrotation
                                    JOINT LeftHandMiddle3
                                    {
                                        OFFSET 0.048154 -0.137918 0.006551
                                        CHANNELS 3 Zrotation Yrotation Xrotation
                                        End Site
                                        {
                                            OFFSET 0.034097 -0.233126 0.010956
                                        }
                                    }
                                }
                            }
                            JOINT LeftHandRing1
                            {
                                OFFSET 0.743817 -0.005823 -0.153668
                                CHANNELS 3 Zrotation Yrotation Xrotation
                                JOINT LeftHandRing2
                                {
                                    OFFSET 0.316358 -0.156528 -0.012257
                                    CHANNELS 3 Zrotation Yrotation Xrotation
                                    JOINT LeftHandRing3
                                    {
                                        OFFSET 0.035137 -0.131726 -0.004361
                                        CHANNELS 3 Zrotation Yrotation Xrotation
                                        End Site
                                        {
                                            OFFSET -0.033581 -0.115011 -0.008023
                                        }
                                    }
                                }
                            }
                            JOINT LeftHandLittle1
                            {
                                OFFSET 0.689408 -0.053302 -0.308304
                                CHANNELS 3 Zrotation Yrotation Xrotation
                                JOINT LeftHandLittle2
                                {
                                    OFFSET 0.169066 -0.095866 -0.016741
                                    CHANNELS 3 Zrotation Yrotation Xrotation
                                    JOINT LeftHandLittle3
                                    {
                                        OFFSET 0.063024 -0.102165 -0.009308
                                        CHANNELS 3 Zrotation Yrotation Xrotation
                                        End Site
                                        {
                                            OFFSET 0.057454 -0.181564 -0.004706
                                        }
                                    }
                                }
                            }
                        }
                    }
                }
            }
            JOINT RightCollar
            {
                OFFSET -0.167536 0.778237 -0.168280
                CHANNELS 3 Zrotation Yrotation Xrotation
                JOINT RightShoulder
                {
                    OFFSET -0.831514 -0.002900 0.006457
                    CHANNELS 3 Zrotation Yrotation Xrotation
                    JOINT RightElbow
                    {
                        OFFSET -2.272872 -0.026639 0.059313
                        CHANNELS 3 Zrotation Yrotation Xrotation
                        JOINT RightWrist
                        {
                            OFFSET -2.081982 -0.024402 0.054331
                            CHANNELS 3 Zrotation Yrotation Xrotation
                            JOINT RightHandThumb1
                            {
                                OFFSET -0.218911 -0.128571 0.283837
                                CHANNELS 3 Zrotation Yrotation Xrotation
                                JOINT RightHandThumb2
                                {
                                    OFFSET -0.137157 -0.025101 0.077902
                                    CHANNELS 3 Zrotation Yrotation Xrotation
                                    JOINT RightHandThumb3
                                    {
                                        OFFSET -0.157028 -0.093616 0.010846
                                        CHANNELS 3 Zrotation Yrotation Xrotation
                                        End Site
                                        {
                                            OFFSET -0.188552 -0.190363 -0.006827
                                        }
                                    }
                                }
                            }
                            JOINT RightHandFore1
                            {
                                OFFSET -0.767344 -0.015991 0.196679
                                CHANNELS 3 Zrotation Yrotation Xrotation
                                JOINT RightHandFore2
                                {
                                    OFFSET -0.186655 -0.109260 0.014806
                                    CHANNELS 3 Zrotation Yrotation Xrotation
                                    JOINT RightHandFore3
                                    {
                                        OFFSET -0.056465 -0.116418 0.004553
                                        CHANNELS 3 Zrotation Yrotation Xrotation
                                        End Site
                                        {
                                            OFFSET -0.018617 -0.192379 0.003225
                                        }
                                    }
                                }
                            }
                            JOINT RightHandMiddle1
                            {
                                OFFSET -0.709887 -0.008302 0.018525
                                CHANNELS 3 Zrotation Yrotation Xrotation
                                JOINT RightHandMiddle2
                                {
                                    OFFSET -0.167475 -0.178658 0.009781
                                    CHANNELS 3 Zrotation Yrotation Xrotation
                                    JOINT RightHandMiddle3
                                    {
                                        OFFSET -0.005432 -0.146133 -0.000096
                                        CHANNELS 3 Zrotation Yrotation Xrotation
                                        End Site
                                        {
                                            OFFSET 0.035865 -0.233089 -0.003621
                                        }
                                    }
                                }
                            }
                            JOINT RightHandRing1
                            {
                                OFFSET -0.743819 -0.005785 -0.153669
                                CHANNELS 3 Zrotation Yrotation Xrotation
                                JOINT RightHandRing2
                                {
                                    OFFSET -0.221103 -0.274415 -0.023302
                                    CHANNELS 3 Zrotation Yrotation Xrotation
                                    JOINT RightHandRing3
                                    {
                                        OFFSET 0.000375 -0.135107 -0.018732
                                        CHANNELS 3 Zrotation Yrotation Xrotation
                                        End Site
                                        {
                                            OFFSET 0.038737 -0.112720 -0.014621
                                        }
                                    }
                                }
                            }
                            JOINT RightHandLittle1
                            {
                                OFFSET -0.689403 -0.053298 -0.308303
                                CHANNELS 3 Zrotation Yrotation Xrotation
                                JOINT RightHandLittle2
                                {
                                    OFFSET -0.175323 -0.083822 -0.017050
                                    CHANNELS 3 Zrotation Yrotation Xrotation
                                    JOINT RightHandLittle3
                                    {
                                        OFFSET -0.069987 -0.097509 -0.009449
                                        CHANNELS 3 Zrotation Yrotation Xrotation
                                        End Site
                                        {
                                            OFFSET -0.068738 -0.176478 -0.020473
                                        }
                                    }
                                }
                            }
                        }
                    }
                }
            }
        }
    }
    JOINT LeftHip
    {
        OFFSET 0.685143 0.673822 -0.044491
        CHANNELS 3 Zrotation Yrotation Xrotation
        JOINT LeftKnee
        {
            OFFSET 0.085364 -3.750208 0.017676
            CHANNELS 3 Zrotation Yrotation Xrotation
            JOINT LeftAnkle
            {
                OFFSET 0.094583 -4.155206 0.019585
                CHANNELS 3 Zrotation Yrotation Xrotation
                JOINT LeftToe
                {
                    OFFSET -0.000000 -0.395925 0.621478
                    CHANNELS 3 Zrotation Yrotation Xrotation
                    End Site
                    {
                        OFFSET -0.000000 -0.077878 0.321152
                    }
                }
            }
        }
    }
    JOINT RightHip
    {
        OFFSET -0.685143 0.673822 -0.044492
        CHANNELS 3 Zrotation Yrotation Xrotation
        JOINT RightKnee
        {
            OFFSET -0.085364 -3.750208 0.017677
            CHANNELS 3 Zrotation Yrotation Xrotation
            JOINT RightAnkle
            {
                OFFSET -0.094583 -4.155206 0.019585
                CHANNELS 3 Zrotation Yrotation Xrotation
                JOINT RightToe
                {
                    OFFSET -0.000000 -0.395925 0.621478
                    CHANNELS 3 Zrotation Yrotation Xrotation
                    End Site
                    {
                        OFFSET -0.000000 -0.077878 0.321152
                    }
                }
            }
        }
    }
}
MOTION
Frames: 4
Frame Time: 0.033333
-0.042530 8.256948 -0.017787 0.230195 -3.164431 0.332969 -0.100795 3.733183 -3.448158 0.371483 -0.606005 -3.434363 1.006194 -1.693752 1.888584 0.229793 -4.454425 5.749249 -12.339127 -1.118312 -0.140115 -46.115723 -6.049979 10.426894 -0.000004 -0.000001 0.000000 47.464035 1.774395 -2.244908 -0.000021 0.000008 -0.000005 4.189920 -11.288248 -4.180924 11.120751 -21.741707 -16.314552 51.176186 5.056823 3.601748 28.412649 0.390567 0.759253 13.337454 -0.318184 -0.492897 29.491657 0.902074 -0.192149 46.388596 1.491763 0.145779 7.445567 0.204442 -0.058380 13.035336 1.268889 -2.037641 43.252621 1.003966 -1.695426 19.829435 1.708545 -0.230104 9.478451 4.303457 0.657238 16.287138 1.845678 1.632007 15.434956 0.327451 3.330247 13.223427 2.007910 0.138622 51.534008 -3.236989 2.879359 -0.029792 17.065292 -0.205947 -38.911694 7.375409 9.550074 0.000003 0.000009 -0.000013 -11.346153 7.805235 -9.073833 -26.467052 18.544346 -15.649999 -26.922131 -0.968608 1.513544 -36.312492 -2.666223 -4.312579 -25.855976 -1.405956 -3.503246 -43.094177 -1.320068 -0.124872 -48.924145 -1.671771 -2.691845 -15.366854 -0.301325 -0.986140 -49.236675 -2.655378 -5.956351 -43.439377 6.447473 -1.648637 -22.174072 4.196124 0.311013 -39.839558 3.790226 -3.052030 -26.194174 1.580354 3.911380 -29.621128 1.608691 4.118885 1.198068 14.674673 27.966988 0.036979 0.308332 13.675342 2.473005 -2.631054 15.641920 0.039857 0.195986 -2.135612 -22.510550 -1.297111 30.993431 -0.000000 0.000000 -0.000002 3.675388 5.199715 26.155436 0.000000 -0.000004 -0.000002
-0.048197 8.291564 -0.028414 0.321747 -4.423918 0.513512 -0.337751 4.852299 -3.467626 0.267155 -0.771542 -3.295750 0.665116 -1.029982 2.438414 0.179616 -3.484473 6.811107 -12.631341 -0.981264 -0.177964 -47.659767 -6.108697 10.844318 -0.000001 0.000001 -0.000001 47.407051 1.596557 -2.260227 -0.000006 0.000006 -0.000002 4.189923 -11.288247 -4.180921 11.120748 -21.741716 -16.314552 50.820564 5.016683 3.537919 31.342253 0.857881 1.168919 17.760395 0.304385 0.130535 31.067631 0.952799 -0.191829 48.116528 1.539005 0.173308 9.988168 0.284290 -0.069575 16.143139 0.952756 -2.293535 45.218456 0.822265 -1.958089 23.907656 1.489227 -0.895645 15.751350 2.742468 0.194985 20.029053 0.715981 0.805544 18.764164 -0.212966 2.482241 13.517761 1.807267 0.180012 52.974327 -3.879096 2.503660 -0.025630 15.888309 -0.190970 -38.658932 7.771288 10.094144 0.000010 0.000032 -0.000024 -11.346151 7.805236 -9.073833 -26.467054 18.544348 -15.649990 -24.233904 -0.469789 1.385644 -36.168072 -2.668973 -4.287177 -25.425377 -1.407712 -3.407213 -40.581924 -1.244336 -0.146655 -48.261116 -1.635206 -2.667041 -14.469872 -0.276527 -0.931111 -46.904202 -2.760751 -5.671371 -42.776146 6.419553 -1.660280 -22.257479 4.207599 0.316745 -36.882221 3.181610 -2.539961 -25.988653 1.608552 3.838583 -29.416567 1.600154 4.039282 0.534074 15.198865 28.884127 0.025090 0.254563 11.255734 2.618910 -2.189994 17.424820 0.035604 0.171125 -1.877761 -23.400299 -1.635733 30.004160 0.000001 0.000000 -0.000002 4.059260 6.081591 26.761000 -0.000002 -0.000004 0.000002
-0.053882 8.320064 -0.041055 0.408818 -5.620894 0.729736 -0.578724 5.880706 -3.504764 0.146979 -0.921171 -3.176753 0.383032 -0.392679 2.960004 0.130385 -2.530886 7.817125 -12.888117 -0.874408 -0.213256 -49.029125 -6.209585 11.242863 0.000000 0.000002 0.000001 47.263485 1.410557 -2.279031 -0.000008 0.000005 -0.000001 4.189923 -11.288247 -4.180921 11.120749 -21.741711 -16.314550 49.974499 4.893882 3.432251 34.678455 1.393048 1.647473 22.798187 1.020057 0.927206 32.673443 1.004058 -0.187300 50.082813 1.593591 0.206782 12.324485 0.361045 -0.075901 19.525558 0.618911 -2.582384 49.909000 0.396357 -2.596665 27.658373 1.303752 -1.512934 21.705084 1.299860 -0.271292 23.430954 -0.315480 0.037976 21.826569 -0.714643 1.690560 13.781423 1.629776 0.218502 54.261703 -3.986799 2.123159 -0.019274 13.877372 -0.165772 -38.401989 8.117118 10.572409 0.000013 0.000022 -0.000019 -11.346159 7.805239 -9.073835 -26.467054 18.544348 -15.649994 -21.463482 0.041345 1.255185 -36.019173 -2.671812 -4.260961 -24.981468 -1.409710 -3.308088 -37.991806 -1.166481 -0.165219 -47.577545 -1.597587 -2.641136 -13.620168 -0.253563 -0.878846 -44.500145 -2.874149 -5.378024 -42.092464 6.389995 -1.672762 -22.334118 4.218142 0.322000 -33.839119 2.544594 -2.022683 -25.776802 1.637834 3.763579 -29.205275 1.593282 3.957908 -0.077762 15.740733 29.820234 0.015074 0.197687 8.718385 2.745283 -1.801606 19.193556 0.032339 0.152943 -1.691547 -24.289833 -2.128503 29.017925 -0.000002 0.000001 0.000000 4.430709 7.037727 27.353758 0.000000 0.000005 -0.000003
-0.059839 8.341579 -0.055588 0.482229 -6.630614 0.980019 -0.814731 6.719922 -3.557421 0.009409 -1.039526 -3.090366 0.172053 0.300193 3.446420 0.072683 -1.411433 8.748647 -13.084281 -0.809811 -0.241559 -50.085407 -6.345980 11.607258 0.000002 0.000002 0.000001 47.070736 1.223310 -2.301064 -0.000021 0.000003 -0.000000 4.189920 -11.288242 -4.180920 11.120744 -21.741711 -16.314554 48.965240 4.741248 3.317247 37.815125 1.898392 2.109247 27.536659 1.693930 1.737609 34.264442 1.054317 -0.180092 51.929928 1.645597 0.240341 14.248429 0.426583 -0.078167 22.773869 0.307322 -2.865660 55.512825 -0.096729 -3.380409 30.749481 1.162831 -2.024656 26.867226 0.077495 -0.700966 26.211912 -1.161309 -0.601067 24.351028 -1.130937 1.029412 14.002485 1.489078 0.249592 55.335255 -3.493343 1.777211 -0.012070 11.093979 -0.131587 -38.145794 8.395296 10.958605 0.000007 0.000019 -0.000018 -11.346152 7.805232 -9.073835 -26.467056 18.544348 -15.649987 -18.735859 0.541594 1.127918 -35.872528 -2.674614 -4.235113 -24.544285 -1.411864 -3.210336 -35.440765 -1.089433 -0.179094 -46.904240 -1.560619 -2.615301 -12.882620 -0.234080 -0.833355 -42.133053 -2.991654 -5.090422 -41.419174 6.360123 -1.685546 -22.397238 4.226822 0.326320 -30.848267 1.905675 -1.527915 -25.568165 1.666925 3.689813 -28.996704 1.589056 3.878693 -0.550683 16.286171 30.712465 0.007681 0.141307 6.220150 2.848491 -1.572678 20.845730 0.030240 0.141635 -1.578311 -25.179226 -2.911604 28.108852 -0.000000 0.000000 0.000000 4.783642 8.111153 27.913395 0.000000 0.000004 -0.000002
